<svg xmlns="http://www.w3.org/2000/svg" id="calendar-60" width="19.555" height="19.554" viewBox="0 0 19.555 19.554">
    <defs>
        <style>
            .cls-1{fill:#fff}
        </style>
    </defs>
    <path id="Path_2" d="M12.275 1h-.85a.425.425 0 0 0-.425.425V4.4a.425.425 0 0 0 .425.425h.85A.425.425 0 0 0 12.7 4.4V1.425A.425.425 0 0 0 12.275 1z" class="cls-1" data-name="Path 2" transform="translate(-6.749 -1)"/>
    <path id="Path_3" d="M34.275 4.826h-.85A.425.425 0 0 1 33 4.4V1.425A.425.425 0 0 1 33.425 1h.85a.425.425 0 0 1 .425.425V4.4a.425.425 0 0 1-.425.426z" class="cls-1" data-name="Path 3" transform="translate(-19.397 -1)"/>
    <path id="Path_4" d="M19.7 5h-2.547v2.551a.425.425 0 0 1-.425.425h-2.55a.425.425 0 0 1-.425-.425V5H7.8v2.551a.425.425 0 0 1-.425.425H4.826a.425.425 0 0 1-.426-.425V5H1.85a.85.85 0 0 0-.85.85V22a.85.85 0 0 0 .85.85H19.7a.85.85 0 0 0 .85-.85V5.85A.85.85 0 0 0 19.7 5zm-.425 17h-17a.425.425 0 0 1-.425-.425V10.1a.425.425 0 0 1 .425-.425h17a.425.425 0 0 1 .425.425v11.479a.425.425 0 0 1-.421.421z" class="cls-1" data-name="Path 4" transform="translate(-1 -3.3)"/>
</svg>
