<svg xmlns="http://www.w3.org/2000/svg" width="11.632" height="11.632" viewBox="0 0 11.632 11.632">
    <path d="M3.288 0h-.506a.253.253 0 0 0-.253.253v1.77a.253.253 0 0 0 .253.253h.506a.253.253 0 0 0 .253-.253V.253A.253.253 0 0 0 3.288 0z" data-name="Path 2"/>
    <path d="M8.851 2.276h-.506a.253.253 0 0 1-.253-.253V.253A.253.253 0 0 1 8.345 0h.506a.253.253 0 0 1 .253.253v1.77a.253.253 0 0 1-.253.253z" data-name="Path 3"/>
    <path d="M11.126 1.011H9.609v1.517a.253.253 0 0 1-.253.253H7.839a.253.253 0 0 1-.253-.253V1.011h-3.54v1.517a.253.253 0 0 1-.253.253H2.276a.253.253 0 0 1-.253-.253V1.011H.506A.506.506 0 0 0 0 1.517v9.609a.506.506 0 0 0 .506.506h10.62a.506.506 0 0 0 .506-.506V1.517a.506.506 0 0 0-.506-.506zm-.253 10.115H.759a.253.253 0 0 1-.253-.253V4.045a.253.253 0 0 1 .253-.253h10.114a.253.253 0 0 1 .253.253v6.828a.253.253 0 0 1-.253.253z" data-name="Path 4"/>
</svg>
