<svg xmlns="http://www.w3.org/2000/svg" width="12.897" height="13.4" viewBox="0 0 12.897 13.4">
    <defs>
        <style>
            .cls-1{fill:#fe5a1d;stroke:#fff;stroke-width:.2px}
        </style>
    </defs>
    <g id="discount" transform="translate(-10.212 .169)">
        <g id="Group_442" data-name="Group 442" transform="translate(10.359 -.002)">
            <g id="Group_441" data-name="Group 441">
                <path id="Path_2204" d="M22.354 6.735a.385.385 0 0 1 0-.34l.49-1a1.14 1.14 0 0 0-.492-1.514l-.985-.523a.385.385 0 0 1-.2-.275l-.193-1.1a1.14 1.14 0 0 0-1.288-.936l-1.1.156a.385.385 0 0 1-.324-.105l-.8-.775a1.14 1.14 0 0 0-1.592 0l-.8.776a.385.385 0 0 1-.324.105l-1.1-.156a1.14 1.14 0 0 0-1.288.936l-.193 1.1a.385.385 0 0 1-.2.275l-.985.523a1.14 1.14 0 0 0-.492 1.514l.49 1a.385.385 0 0 1 0 .34l-.49 1a1.14 1.14 0 0 0 .492 1.514l.985.523a.385.385 0 0 1 .2.275l.193 1.1a1.139 1.139 0 0 0 1.124.947 1.171 1.171 0 0 0 .164-.012l1.1-.156a.385.385 0 0 1 .324.105l.8.775a1.14 1.14 0 0 0 1.592 0l.8-.775a.385.385 0 0 1 .324-.105l1.1.156a1.14 1.14 0 0 0 1.288-.936l.193-1.1a.385.385 0 0 1 .2-.275l.985-.523a1.14 1.14 0 0 0 .492-1.514zM22 8.582l-.985.523a1.138 1.138 0 0 0-.591.813l-.193 1.1a.386.386 0 0 1-.436.317l-1.1-.156a1.137 1.137 0 0 0-.956.311l-.8.775a.386.386 0 0 1-.539 0l-.8-.775a1.136 1.136 0 0 0-.793-.322 1.163 1.163 0 0 0-.163.012l-1.1.156a.386.386 0 0 1-.436-.317l-.193-1.1a1.137 1.137 0 0 0-.591-.813l-.985-.523a.386.386 0 0 1-.166-.512l.49-1a1.138 1.138 0 0 0 0-1.005l-.49-1a.386.386 0 0 1 .166-.512l.985-.523a1.138 1.138 0 0 0 .591-.813l.193-1.1a.386.386 0 0 1 .436-.317l1.1.156a1.138 1.138 0 0 0 .956-.311l.8-.775a.386.386 0 0 1 .539 0l.8.775a1.137 1.137 0 0 0 .956.311l1.1-.156a.386.386 0 0 1 .436.317l.193 1.1a1.137 1.137 0 0 0 .591.813l.985.517a.386.386 0 0 1 .166.512l-.49 1a1.138 1.138 0 0 0 0 1.005l.49 1a.386.386 0 0 1-.166.517z" class="cls-1" data-name="Path 2204" transform="translate(-10.359 .002)"/>
            </g>
        </g>
        <g id="Group_444" data-name="Group 444" transform="translate(13.782 3.687)">
            <g id="Group_443" data-name="Group 443">
                <path id="Path_2205" d="M149.437 143.9a.379.379 0 0 0-.536 0l-5 5a.379.379 0 1 0 .536.536l5-5a.379.379 0 0 0 0-.536z" class="cls-1" data-name="Path 2205" transform="translate(-143.791 -143.791)"/>
            </g>
        </g>
        <g id="Group_446" data-name="Group 446" transform="translate(13.756 3.156)">
            <g id="Group_445" data-name="Group 445">
                <path id="Path_2206" d="M144.191 123.116a1.389 1.389 0 1 0 1.389 1.389 1.39 1.39 0 0 0-1.389-1.389zm0 2.02a.631.631 0 1 1 .631-.631.632.632 0 0 1-.631.631z" class="cls-1" data-name="Path 2206" transform="translate(-142.802 -123.116)"/>
            </g>
        </g>
        <g id="Group_448" data-name="Group 448" transform="translate(16.786 7.196)">
            <g id="Group_447" data-name="Group 447">
                <path id="Path_2207" d="M262.311 280.61A1.389 1.389 0 1 0 263.7 282a1.39 1.39 0 0 0-1.389-1.39zm0 2.02a.631.631 0 1 1 .631-.631.632.632 0 0 1-.631.631z" class="cls-1" data-name="Path 2207" transform="translate(-260.922 -280.61)"/>
            </g>
        </g>
    </g>
</svg>
