<svg xmlns="http://www.w3.org/2000/svg" width="16.732" height="16.455" viewBox="0 0 16.732 16.455">
    <defs>
        <style>
            .cls-1{fill:#fe5a1d}
        </style>
    </defs>
    <g id="location">
        <g id="Group_386" data-name="Group 386">
            <g id="Group_385" data-name="Group 385">
                <path id="Path_2168" d="M88.04 16.56a45.787 45.787 0 0 0 1.833 2.4l.189.23h-1.376a.279.279 0 0 0 0 .558h4.462a.279.279 0 1 0 0-.558h-1.376l.189-.23a46.348 46.348 0 0 0 1.833-2.4 24.5 24.5 0 0 0 1.842-2.969 6.522 6.522 0 0 0 .858-2.759 5.573 5.573 0 0 0-1.633-3.949.279.279 0 1 0-.395.394 5.018 5.018 0 0 1 1.47 3.555 6.012 6.012 0 0 1-.8 2.506 23.949 23.949 0 0 1-1.8 2.9 44.977 44.977 0 0 1-2.21 2.853.282.282 0 0 1-.425 0 45.531 45.531 0 0 1-2.21-2.853 23.951 23.951 0 0 1-1.8-2.9 6 6 0 0 1-.8-2.506A5.021 5.021 0 0 1 92.872 6.2a.279.279 0 0 0 .218-.514 5.58 5.58 0 0 0-7.75 5.146 6.532 6.532 0 0 0 .858 2.761 24.487 24.487 0 0 0 1.842 2.967z" class="cls-1" data-name="Path 2168" transform="translate(-82.551 -5.246)"/>
                <path id="Path_2169" d="M173.449 82.643a.279.279 0 0 0 0-.558 2.789 2.789 0 1 0 1.972.817.279.279 0 1 0-.394.394 2.231 2.231 0 1 1-1.578-.653z" class="cls-1" data-name="Path 2169" transform="translate(-165.082 -79.574)"/>
                <path id="Path_2170" d="M16.627 367.189l-1.715-3.068a.867.867 0 0 0-.759-.438h-1.987a.279.279 0 0 0 0 .558h1.987a.309.309 0 0 1 .272.152l1.714 3.068a.251.251 0 0 1 0 .258.307.307 0 0 1-.27.148h-15a.307.307 0 0 1-.27-.148.251.251 0 0 1 0-.258l1.714-3.068a.309.309 0 0 1 .272-.152h1.982a.279.279 0 0 0 0-.558H2.579a.867.867 0 0 0-.759.438l-1.715 3.068a.809.809 0 0 0 .009.811.859.859 0 0 0 .751.423h15a.859.859 0 0 0 .751-.423.809.809 0 0 0 .011-.811z" class="cls-1" data-name="Path 2170" transform="translate(0 -351.97)"/>
                <path id="Path_2171" d="M352.1 406.351h-1.115a.28.28 0 0 0-.155.047l-.837.558a.279.279 0 0 0 .309.464l.766-.511h1.032a.279.279 0 1 0 0-.558z" class="cls-1" data-name="Path 2171" transform="translate(-338.435 -393.243)"/>
                <path id="Path_2172" d="M366.937 457.83a.279.279 0 0 0 .279.279h2.231a.279.279 0 1 0 0-.558h-2.231a.279.279 0 0 0-.279.279z" class="cls-1" data-name="Path 2172" transform="translate(-354.946 -442.77)"/>
                <path id="Path_2173" d="M87.568 407.466a.279.279 0 0 0 .155-.511l-.837-.558a.282.282 0 0 0-.155-.047h-1.115a.279.279 0 1 0 0 .558h1.032l.766.511a.278.278 0 0 0 .154.047z" class="cls-1" data-name="Path 2173" transform="translate(-82.548 -393.242)"/>
                <path id="Path_2174" d="M60.016 457.551a.279.279 0 1 0 0 .558h2.231a.279.279 0 1 0 0-.558z" class="cls-1" data-name="Path 2174" transform="translate(-57.785 -442.77)"/>
            </g>
        </g>
    </g>
</svg>
