<svg xmlns="http://www.w3.org/2000/svg" width="16.628" height="16.628" viewBox="0 0 16.628 16.628">
  <g id="Group_503" data-name="Group 503" transform="translate(-6604.595 357.128)">
    <g id="favourite-31" transform="translate(6604.595 -357.128)">
      <path id="Path_82" data-name="Path 82" d="M20.761,9.8a.419.419,0,0,0-.386-.255H15.262l-2.4-5.138a.419.419,0,0,0-.759,0L9.7,9.546H4.586a.419.419,0,0,0-.3.71L8.07,14.183l-1.523,6.09a.419.419,0,0,0,.615.466L12.48,17.7,17.8,20.739a.419.419,0,0,0,.615-.466l-1.523-6.09,3.786-3.927A.419.419,0,0,0,20.761,9.8Z" transform="translate(-4.166 -4.167)" fill="#fe5a1d"/>
    </g>
    <path id="Subtraction_3" data-name="Subtraction 3" d="M5.632,16.627a.425.425,0,0,1-.208-.054L.107,13.533,0,13.594V.014A.42.42,0,0,1,.107,0,.42.42,0,0,1,.485.241l2.4,5.138H8a.419.419,0,0,1,.3.71L4.516,10.016l1.523,6.09a.42.42,0,0,1-.407.521Z" transform="translate(6612.802 -357.128)"/>
  </g>
</svg>
