<svg xmlns="http://www.w3.org/2000/svg" width="11.683" height="11.683" viewBox="0 0 11.683 11.683">
    <defs>
        <style>
            .cls-1{fill:#efd358}
        </style>
    </defs>
    <g id="favourite-31">
        <path id="Path_82" d="M15.826 8.126a.294.294 0 0 0-.271-.179h-3.593l-1.688-3.61a.294.294 0 0 0-.534 0L8.053 7.946H4.461a.295.295 0 0 0-.212.5l2.66 2.754-1.07 4.279a.295.295 0 0 0 .432.327l3.737-2.135 3.737 2.135a.295.295 0 0 0 .432-.327l-1.07-4.279 2.66-2.759a.3.3 0 0 0 .059-.315z" class="cls-1" data-name="Path 82" transform="translate(-4.166 -4.167)"/>
    </g>
</svg>
