<svg xmlns="http://www.w3.org/2000/svg" viewBox="0 0 235.24 289.36"><title>Asset 1</title><g id="Layer_2" data-name="Layer 2"><g id="comp_Bangladesh"><path d="M87.22,118.88c5.4,0,10.61,0,15.82,0a2.58,2.58,0,0,1,2,.88q13.39,13.76,26.84,27.45a4.19,4.19,0,0,0,.7.45l-.18.33H87.22v1.36q0,40.26,0,80.52a25,25,0,0,0,11.09,21.4c3.66,2.61,8,3.61,12.39,4.27,12.84,1.92,24.33-1.68,34.85-8.76a111.29,111.29,0,0,0,34.08-35.55,62.55,62.55,0,0,0,8.64-25.34c.1-.89.15-1.78.22-2.68,0-.13,0-.27,0-.57-1.43.1-2.82.18-4.21.31A47.27,47.27,0,0,1,165.5,181c-9.64-3-16.39-9.22-19.8-18.74-3.51-9.77-4.48-19.85-2-30a33.53,33.53,0,0,1,12.47-19.46c4.39-3.31,9.52-4.93,14.89-5.79a56.12,56.12,0,0,1,20.87.19A42.6,42.6,0,0,1,212,117.63a68.72,68.72,0,0,1,22,40.88c3.24,20.48-.33,39.92-9.4,58.45a142.48,142.48,0,0,1-22.62,32.61,136,136,0,0,1-22,20,104.42,104.42,0,0,1-38.28,17.2,112.83,112.83,0,0,1-23.81,2.6,49.2,49.2,0,0,1-21.44-5.06,86.81,86.81,0,0,1-33-26.93A37.87,37.87,0,0,1,57.24,245a8.07,8.07,0,0,1-.32-2.23q0-46.62,0-93.24V148H55.56c-8.93,0-17.86,0-26.8,0a2.39,2.39,0,0,1-1.52-.6Q13.82,133.45.46,119.46c-.12-.12-.23-.25-.46-.51H56.91v-1.2q0-28.15,0-56.3c0-5.06-1.18-9.71-4.71-13.53-2.74-3-6.26-4.64-10-5.89a25.73,25.73,0,0,0-14.77-.55,41,41,0,0,0-4.63,1.83c-.27-.46-.72-1.17-1.13-1.9A113.26,113.26,0,0,1,12.9,22.25a10.3,10.3,0,0,1,1.19-8.66,17,17,0,0,1,6.65-6.07C28.4,3.31,36.5.36,45.32,0Q63.44-.64,74.31,14c6.67,9,10.17,19.07,11.82,30a109.57,109.57,0,0,1,1.11,16.49q-.06,28.52,0,57Z"/></g></g></svg>